<?xml version="1.0" encoding="UTF-8" standalone="no"?>
<!-- Created with Inkscape (http://www.inkscape.org/) -->

<svg
   xmlns:dc="http://purl.org/dc/elements/1.1/"
   xmlns:cc="http://creativecommons.org/ns#"
   xmlns:rdf="http://www.w3.org/1999/02/22-rdf-syntax-ns#"
   xmlns:svg="http://www.w3.org/2000/svg"
   xmlns="http://www.w3.org/2000/svg"
   xmlns:sodipodi="http://sodipodi.sourceforge.net/DTD/sodipodi-0.dtd"
   xmlns:inkscape="http://www.inkscape.org/namespaces/inkscape"
   sodipodi:docname="arrow_03_b2.svg"
   inkscape:version="0.92.2 (5c3e80d, 2017-08-06)"
   id="svg8"
   version="1.1"
   viewBox="0 0 102.20519 169.96121"
   height="169.96121mm"
   width="102.20519mm">
  <defs
     id="defs2" />
  <sodipodi:namedview
     inkscape:snap-page="true"
     inkscape:snap-grids="false"
     inkscape:window-maximized="1"
     inkscape:window-y="-9"
     inkscape:window-x="-9"
     inkscape:window-height="1013"
     inkscape:window-width="1920"
     showgrid="true"
     inkscape:current-layer="layer1"
     inkscape:document-units="mm"
     inkscape:cy="231.10222"
     inkscape:cx="96.370877"
     inkscape:zoom="0.7"
     inkscape:pageshadow="2"
     inkscape:pageopacity="0.0"
     borderopacity="1.0"
     bordercolor="#666666"
     pagecolor="#ffffff"
     id="base"
     inkscape:snap-global="true"
     showborder="true"
     fit-margin-top="0"
     fit-margin-left="0"
     fit-margin-right="0"
     fit-margin-bottom="0">
    <inkscape:grid
       type="xygrid"
       id="grid3723"
       originx="-114.62444"
       originy="-178.91004" />
  </sodipodi:namedview>
  <metadata
     id="metadata5">
    <rdf:RDF>
      <cc:Work
         rdf:about="">
        <dc:format>image/svg+xml</dc:format>
        <dc:type
           rdf:resource="http://purl.org/dc/dcmitype/StillImage" />
        <dc:title></dc:title>
      </cc:Work>
    </rdf:RDF>
  </metadata>
  <g
     inkscape:label="Layer 1"
     inkscape:groupmode="layer"
     id="layer1"
     style="opacity:1"
     transform="translate(-57.312225,-37.583752)">
    <path
       id="path3713"
       transform="scale(0.26458333)"
       style="color:#000000;font-style:normal;font-variant:normal;font-weight:normal;font-stretch:normal;font-size:medium;line-height:normal;font-family:sans-serif;font-variant-ligatures:normal;font-variant-position:normal;font-variant-caps:normal;font-variant-numeric:normal;font-variant-alternates:normal;font-feature-settings:normal;text-indent:0;text-align:start;text-decoration:none;text-decoration-line:none;text-decoration-style:solid;text-decoration-color:#000000;letter-spacing:normal;word-spacing:normal;text-transform:none;writing-mode:lr-tb;direction:ltr;text-orientation:mixed;dominant-baseline:auto;baseline-shift:baseline;text-anchor:start;white-space:normal;shape-padding:0;clip-rule:nonzero;display:inline;overflow:visible;visibility:visible;opacity:1;isolation:auto;mix-blend-mode:normal;color-interpolation:sRGB;color-interpolation-filters:linearRGB;solid-color:#000000;solid-opacity:1;vector-effect:none;fill:#000000;fill-opacity:1;fill-rule:nonzero;stroke:none;stroke-width:0.93729228px;stroke-linecap:butt;stroke-linejoin:miter;stroke-miterlimit:4;stroke-dasharray:none;stroke-dashoffset:0;stroke-opacity:1;color-rendering:auto;image-rendering:auto;shape-rendering:auto;text-rendering:auto;enable-background:accumulate"
       d="m 286.67578,142.04883 -0.16211,0.92383 c 1.42655,0.24437 2.82118,0.54226 4.19727,0.875 40.06858,58.95031 53.96096,96.80558 52.73828,120.36523 -0.61506,11.85135 -5.00591,20.07807 -11.81836,25.69531 -6.81245,5.61725 -16.08222,8.6175 -26.43359,9.82618 -20.70276,2.41735 -45.69378,-2.32268 -63.72852,-7.15235 -9.01737,-2.41483 -16.29937,-4.85208 -20.43945,-6.41601 -0.32878,-0.1242 -0.5027,-0.20374 -0.79102,-0.31641 -0.19223,-0.25043 -0.49396,-0.4953 -0.67969,-0.74609 l -0.0879,-0.125 -0.14648,-0.0449 c -0.88369,-0.26551 -1.48464,-0.42093 -1.86133,-0.48632 -0.0942,-0.0163 -0.16931,-0.0271 -0.25,-0.0312 -0.0807,-0.004 -0.15133,-0.0277 -0.32617,0.0527 -0.0874,0.0401 -0.27174,0.31711 -0.27344,0.32422 -0.002,0.007 0.0185,0.30828 0.0606,0.37695 0.084,0.13735 0.14879,0.16923 0.21289,0.21485 0.25644,0.18247 0.64902,0.36007 1.28516,0.63476 0.38571,0.16657 0.9967,0.39898 1.53515,0.61133 10.20786,13.16513 28.80532,25.65286 49.61328,37.98828 21.33033,12.64508 44.84533,25.12822 63.53711,37.91992 18.69179,12.7917 32.50017,25.90333 34.6211,39.59766 1.06046,6.84714 -0.75549,13.86668 -6.37891,21.22851 -5.62342,7.36188 -15.06921,15.03818 -29.22461,23.03907 l -0.78906,0.44336 0.82617,0.37695 c 20.95674,9.54463 31.69306,20.7867 34.30273,33.60156 2.60968,12.81487 -2.90103,27.3578 -14.80078,43.52344 -23.79949,32.33125 -73.04082,70.97778 -132.5039,114.9375 -0.80255,0.46261 -1.33874,0.78364 -1.63868,1.00977 -0.0769,0.0578 -0.13704,0.11272 -0.19921,0.17773 -0.031,0.034 -0.061,0.0679 -0.0957,0.125 -0.0348,0.0571 -0.0825,0.28818 -0.082,0.29687 4.6e-4,0.008 0.13714,0.33544 0.24414,0.39844 0.107,0.0631 0.17964,0.0619 0.23633,0.0664 0.11339,0.008 0.18145,3.6e-4 0.26562,-0.0156 0.33672,-0.0624 0.83165,-0.23123 1.57227,-0.49414 0.74062,-0.26305 1.70737,-0.62233 2.87109,-1.0625 4.65491,-1.76058 12.53369,-4.81368 22.14649,-8.07617 19.22559,-6.52494 45.37905,-13.88052 66.33203,-13.42773 10.47649,0.22639 19.63679,2.405 25.99219,7.53711 6.35539,5.1321 9.99049,13.22344 9.39843,25.51953 -1.17816,24.46858 -19.3101,65.46942 -66.30273,131.34375 -1.44922,0.31409 -2.91692,0.59146 -4.41601,0.80664 l 0.13281,0.92969 c 1.25557,-0.18022 2.48628,-0.4075 3.70703,-0.65626 l 0.63281,0.44922 c 0.16478,-0.23043 0.3203,-0.45376 0.48438,-0.68359 26.4831,-5.89488 44.84451,-27.8837 60.76367,-57.73633 16.86922,-31.63423 31.05434,-72.15171 49.33203,-112.01953 18.27772,-39.86778 40.6448,-79.07666 73.8125,-108.08594 33.15916,-29.00186 77.11518,-47.83676 138.70508,-46.98633 0.0151,2.3e-4 0.0309,-1.8e-4 0.0449,0 l 0.0508,-0.9375 c -123.18842,-13.16099 -175.19499,-87.29 -209.95508,-160.57031 -17.38006,-36.64015 -30.4142,-73.05653 -45.85547,-101.50976 -14.5498,-26.81056 -31.28636,-46.59443 -55.81836,-52.66993 -0.17373,-0.25533 -0.33896,-0.50364 -0.51367,-0.75976 l -0.69922,0.47852 c -1.11336,-0.25265 -2.2371,-0.48928 -3.38281,-0.68555 z m 5.39063,2.14258 c 23.62946,6.27986 39.90267,25.6008 54.19531,51.9375 15.38678,28.35284 28.42869,64.77149 45.83398,101.46484 34.42746,72.57903 86.28771,146.04991 206.91602,160.42969 -59.67303,0.0151 -102.95012,18.46683 -135.5332,46.96484 -33.32546,29.14726 -55.73769,68.47509 -74.03907,108.39453 -18.30135,39.91941 -32.49509,80.43532 -49.31054,111.96875 -15.66096,29.36841 -33.55217,50.88298 -59.11719,57.02735 46.58353,-65.43225 64.67081,-106.22849 65.86328,-130.99414 0.60184,-12.4992 -3.15099,-20.95519 -9.74414,-26.2793 -6.59315,-5.32411 -15.95204,-7.51522 -26.54492,-7.74414 -21.18575,-0.45782 -47.38563,6.94151 -66.65235,13.48047 -9.63336,3.26944 -17.53442,6.32432 -22.18164,8.08203 -0.67157,0.25398 -1.11593,0.41708 -1.64648,0.61328 59.1542,-43.7492 108.19897,-82.22518 132.05469,-114.63281 11.97598,-16.26921 17.65066,-31.06335 14.96289,-44.26172 -2.65367,-13.03087 -13.54039,-24.3437 -34.11914,-33.87696 13.7847,-7.8768 23.20275,-15.45994 28.83398,-22.83203 5.73865,-7.51271 7.65455,-14.84377 6.55469,-21.94531 -2.19972,-14.20312 -16.26088,-27.37934 -35.01953,-40.2168 -18.75865,-12.83727 -42.27657,-25.32003 -63.58008,-37.94921 -20.12141,-11.92841 -37.98166,-24.0171 -48.23242,-36.52735 4.25165,1.58018 11.00153,3.85779 19.67187,6.17969 18.09468,4.84571 43.14811,9.61921 64.07422,7.17578 10.46306,-1.22172 19.9104,-4.24887 26.91602,-10.02539 7.00561,-5.77652 11.53239,-14.30851 12.1582,-26.36719 1.23793,-23.85349 -12.65165,-61.54485 -52.31445,-120.0664 z"
       inkscape:export-filename="C:\Users\Anatoly\path3713.png"
       inkscape:export-xdpi="96"
       inkscape:export-ydpi="96"
       inkscape:connector-curvature="0" />
    <path
       style="fill:#ffdc78;fill-opacity:1;stroke-width:1.42857146"
       d="m 297.10022,760.06545 c 35.71922,-53.54988 51.26003,-89.25908 49.83346,-114.5058 -0.67884,-12.01394 -4.5844,-18.41287 -14.551,-23.8406 -14.63163,-7.96826 -42.82916,-5.84193 -80.21411,6.04884 -11,3.49869 -21.28571,6.749 -22.85714,7.2229 -1.57143,0.4739 8.39286,-7.67961 22.14286,-18.11894 34.08946,-25.88153 54.62322,-43.16314 75.48259,-63.52766 29.3602,-28.66367 40.78782,-47.04658 40.89093,-65.77874 0.0462,-8.39004 -0.57581,-11.07316 -3.86346,-16.66577 -4.56613,-7.76747 -13.53891,-15.9473 -22.15292,-20.19521 -3.33929,-1.64673 -6.07143,-3.44773 -6.07143,-4.00222 0,-0.5545 2.89038,-2.70204 6.42306,-4.77233 8.74976,-5.1277 21.75992,-18.08587 24.32701,-24.22978 3.51559,-8.41396 2.70816,-19.03997 -2.08123,-27.39006 -8.40438,-14.65266 -22.9209,-25.49487 -74.58064,-55.70341 -18.35565,-10.73366 -38.27015,-23.0183 -44.25445,-27.29923 -10.84017,-7.75462 -22.47987,-18.6912 -18.40518,-17.29339 25.70223,8.81707 59.49187,13.56503 78.29677,11.00189 30.14243,-4.10849 42.61513,-20.14939 38.6364,-49.68955 -2.83154,-21.02287 -15.14524,-49.49117 -36.1957,-83.68164 -6.70829,-10.89569 -11.83039,-20.17685 -11.38245,-20.62479 1.6809,-1.6809 16.33797,7.44608 24.05102,14.97661 15.73436,15.36204 27.1193,35.58277 50.22473,89.2039 33.92695,78.73477 51.58279,108.2714 84.11469,140.71618 32.93338,32.84522 69.93277,52.35403 118.68311,62.57856 l 15.71429,3.29578 -14.28572,0.96333 c -26.506,1.78737 -57.88778,10.94162 -80.52851,23.49063 -22.32373,12.3733 -45.36461,33.1487 -62.93736,56.74907 -22.60993,30.36539 -35.3474,54.99427 -63.90088,123.55738 -31.02624,74.50071 -48.58254,101.64977 -73.74306,114.03625 -5.08244,2.50207 -9.60757,4.54923 -10.05585,4.54923 -0.44827,0 5.5098,-9.48214 13.24017,-21.07143 z"
       id="path4530"
       inkscape:connector-curvature="0"
       transform="scale(0.26458333)" />
  </g>
</svg>
